<?xml version="1.0" encoding="utf-8"?>
<svg xmlns="http://www.w3.org/2000/svg" width="32" height="32">
  <view id="hover" viewBox="0 32 32 32"/>
  <g fill-rule="evenodd" transform="translate(16,16) rotate(45) translate(-16,-15)" fill="#666">
    <path d="M 13,10 v18 a 3,3 0 0,0 6,0 v-18 M 15.25,26.5 a 1.5,1.5 0 1,0 1.5,0 a 1.5,1.5 0 1.5,0 -1.5,0"/>
    <path d="M 13.5,0 a 7,7 0 1,0 5,0 v6 l-2.5,1.5 -2.5,-1.5 v-6"/>
  </g>
  <g fill-rule="evenodd" transform="translate(16,48) rotate(45) translate(-16,-15)" fill="#1155cc">
    <path d="M 13,10 v18 a 3,3 0 0,0 6,0 v-18 M 15.25,26.5 a 1.5,1.5 0 1,0 1.5,0 a 1.5,1.5 0 1.5,0 -1.5,0"/>
    <path d="M 13.5,0 a 7,7 0 1,0 5,0 v6 l-2.5,1.5 -2.5,-1.5 v-6"/>
  </g>
</svg>

